<?xml version="1.0" encoding="UTF-8"?>
<svg id="Layer_1" xmlns="http://www.w3.org/2000/svg" version="1.1" viewBox="0 0 252.63 68.35">
  <!-- Generator: Adobe Illustrator 29.6.1, SVG Export Plug-In . SVG Version: 2.1.1 Build 9)  -->
  <defs>
    <style>
      .st0 {
        fill: #fff;
      }
    </style>
  </defs>
  <g>
    <path class="st0" d="M21.11,52.94h-10.99v-25.61c0-5.57,2.15-7.92,2.15-7.92H0s2.15,2.35,2.15,7.92v19.93c0,4.55-1.38,6.95-1.94,7.71L0,55.23h30.35v-7.15c-2.45,2.45-5.76,4.89-9.24,4.9,0,0,0-.04,0-.04Z"/>
    <path class="st0" d="M50.13,18.44c-12.93,0-19.78,8.43-19.78,18.85s6.85,18.86,19.78,18.86,19.78-8.43,19.78-18.86-6.85-18.85-19.78-18.85ZM55.7,52.99l.1-.05c-6.49,2.35-13.34-2.1-16.81-11.55-3.48-9.45-1.12-17.22,5.37-19.57,6.49-2.35,13.13,1.58,16.76,11.55,3.43,9.45,1.07,17.27-5.42,19.62Z"/>
    <path class="st0" d="M103.69,19.4h-.01s2.15,2.36,2.15,7.93v19.98l-20.39-26.37c-.76-.97-1.94-1.53-3.17-1.53h-9.86s2.15,2.35,2.15,7.92v19.93c0,4.55-1.38,6.95-1.94,7.71l-.2.26h6.54l-.21-.26c-.56-.76-1.94-3.16-1.94-7.71v-24.43l23.86,30.81c.76.97,1.94,1.53,3.17,1.53h4.24v-27.85c0-5.57,2.15-7.92,2.15-7.92,0,0-6.54,0-6.54,0Z"/>
    <path class="st0" d="M151.41,38.83h-18.55l3.98,1.17c2.92.87,5.62,3.53,5.62,6.54,0,3.17-1.74,7.3-5.67,7.3h-.1c-6.58.04-11.23-4.17-13.82-9.08-.89-1.69-1.53-3.46-1.93-5.17-.04-.16-.07-.34-.11-.51v-.04c.02-.84.11-1.71.28-2.59.17-1.63.69-3.17,1.43-4.5.43-.77.99-1.49,1.63-2.12,3.03-3.03,7.64-4.11,6.23.91,3.79-4.78,7.76-5.6,5.8-1.56,2.16-1.7,4.21-2.95,5.8-3.63h0c.2.27.39.56.56.85.02.03.04.06.06.1.99,1.75,1.35,3.75.81,5.83l4.6-.05c2.4,0,4.04-2.45,3.07-4.65-.53-1.24-1.29-2.39-2.25-3.41.15-.17.29-.34.41-.5,1.93-2.62.17-4.65-5.24-7.08,1.16,2.84-4.41,2.81-7.83-1.1-.75.13-1.49.24-2.24.32-2.44.27-4.86.28-7.25.03-4.52-.46-8.92-1.83-13.07-4.05,2.62,2.96,5.49,5.4,8.75,7.1-3.01.78-6.16,2.15-9.4,3.94,2.03-.42,3.94-.62,5.76-.59-4.39,2.56-7.67,6.18-9.95,10.81,1.51-1.07,3.13-1.93,4.94-2.47-.36,1.15-.54,2.3-.58,3.42-.03.96.06,1.91.24,2.84v.23c.05,10.43,7.46,18.91,19.57,18.91s17.38-5.98,18.45-8.74c0-.05.05-.05.05-.1l-.05-8.38v.02h0ZM146.38,20.57c-.85-.06-1.5.06-1.89.38h0s-.02-.01-.04-.01c-.07.06-.13.13-.19.2-.11-.13-.21-.27-.26-.39v-.02c-.38-.88.59-1.46,2.39-.16h0ZM135.37,18.49h.06c.05.04.1.06.15.09.04.03.08.06.12.09.17.12.35.24.55.35.05.03.09.05.14.08.37.21.82.4,1.37.57l-2.71.58-2.69-1.25.35-.05h.03l2.63-.46h0Z"/>
    <path class="st0" d="M133.45,14.4h-.02.02Z"/>
    <path class="st0" d="M126.2,14.44c2.38.24,4.8.24,7.23-.04-5.63-2.18-10.5-4.79-13.97-8.21,1.71,3.21,3.87,6.04,6.74,8.25Z"/>
    <path class="st0" d="M144.01,16.63h0,0Z"/>
    <path class="st0" d="M252.43,54.94c-.56-.76-1.93-3.15-1.93-7.68h0v-19.85c0-5.55,2.14-7.89,2.14-7.89h-12.22s2.14,2.34,2.14,7.89v19.85c0,1.79-.22,3.25-.51,4.4h0c-2.21-3.08-4.14-6.35-5.79-9.75v-.05l-10.79-22.34h-8.8c1.42,2.9,1.42,6.27.05,9.16l-3.53,7.34c-3.83-.7-7.22.06-10.52,1.06v-9.67c0-5.54,2.14-7.89,2.14-7.89h-12.22s2.14,2.35,2.14,7.89v11.9c-4.32.76-8.95.33-14.62-3.85-2.09-1.46-4.19-3.18-6.4-4.75v-3.3c0-5.54,2.15-7.89,2.15-7.89h-12.22s1.94,2.12,2.12,7.1h0c-.97-.26-1.98-.45-3.02-.51h0l-.23,3.88c1.1.06,2.19.29,3.27.65v16.61c0,4.53-1.38,6.93-1.95,7.69l-.19.25h12.22l-.21-.25c-.56-.76-1.94-3.16-1.94-7.69v-12.18c4.27,2.93,8.71,6.05,14,6.67,2.47.36,4.78.04,7.02-.57v6.08c0,4.53-1.38,6.93-1.93,7.69l-.21.25h15.88c-.15-2.6.35-5.2,1.48-7.53l.31-.63,2.09-4.23,2.69-5.53c5.17,1.87,9.08,6.35,14.27,8.64h0c.32.71.55,1.21.59,1.31v.02c.04.09.06.17.1.27.93,2.48,1.54,5.06,1.8,7.68h20.86l-.21-.26h0ZM209.07,44.56c-1.48,3.04-3.31,5.93-5.45,8.56h0c-.5-1.29-.97-3.21-.97-5.86v-9c2.7-1.02,5.44-1.86,8.37-1.82.63.03,1.24.12,1.84.24l-3.79,7.88h0ZM215.79,36.71c-.14-.05-.29-.09-.43-.13l4.81-9.93,6.56,13.67s.56,1.23,1.21,2.65c-1.25-.47-2.49-1.08-3.68-1.75-2.75-1.53-5.43-3.36-8.47-4.51h0Z"/>
  </g>
  <g>
    <path class="st0" d="M71.65,59.23c.56.56.91,1.32.91,2.17,0,1.95-1.38,3.05-3.06,3.05h-3.72v1.48c0,1.24.43,1.96.58,2.17h-3.34l.06-.07c.15-.21.53-.86.53-2.1v-5.43c0-1.52-.58-2.16-.58-2.16h6.48c.85,0,1.62.33,2.17.89,0,0-.03,0-.03,0ZM70.39,61.4c0-1.3-1.06-2.45-2.35-2.45h-2.27v4.89h2.91c.66,0,1.71-.91,1.71-2.44Z"/>
    <path class="st0" d="M86.41,66.71c.42.57.96,1.04,1.59,1.38h-2.4c-.57,0-1.1-.26-1.43-.72l-1.71-2.51c-.26-.28-.54-.6-1.1-.6-.77,0-1.18.42-1.18,1.18v.49c0,1.24.38,1.89.53,2.1l.06.07h-3.36l.06-.07c.15-.21.53-.86.53-2.1v-5.43c0-1.52-.58-2.16-.58-2.16h6.48c.85,0,1.62.33,2.17.89.56.56.91,1.32.91,2.17,0,1.55-1.16,2.69-2.65,2.86.31.13.57.33.78.61l1.34,1.83h-.04,0ZM82.4,63.66c1.3,0,2.35-.95,2.35-2.24s-1.06-2.45-2.35-2.45h-2.26v4.69h2.27s-.01,0,0,0h0Z"/>
    <path class="st0" d="M103.02,63.21c0,2.84-1.87,5.14-5.39,5.14s-5.39-2.3-5.39-5.14,1.87-5.14,5.39-5.14,5.39,2.3,5.39,5.14ZM99.14,67.49c1.77-.64,2.41-2.77,1.48-5.35-.99-2.72-2.8-3.79-4.57-3.15s-2.41,2.76-1.46,5.34c.95,2.58,2.81,3.79,4.58,3.15h-.03Z"/>
    <path class="st0" d="M120.64,68.03l.06.07h-3.34l.06-.07c.15-.21.53-.86.53-2.1v-5.11l-3,7.27h-2.34l-3.4-8.23v6.07c0,1.24.38,1.89.53,2.1l.06.07h-1.78l.06-.07c.15-.21.53-.86.53-2.1v-5.43c0-1.52-.58-2.16-.58-2.16h2.91l3.69,8.94,3.69-8.94h2.4s-.58.64-.58,2.16v5.43c0,1.24.39,1.89.53,2.1h-.03Z"/>
    <path class="st0" d="M136.47,63.21c0,2.84-1.87,5.14-5.39,5.14s-5.39-2.3-5.39-5.14,1.87-5.14,5.39-5.14,5.39,2.3,5.39,5.14ZM132.6,67.49c1.77-.64,2.41-2.77,1.48-5.35-.99-2.72-2.8-3.79-4.57-3.15-1.77.64-2.41,2.76-1.46,5.34.95,2.58,2.81,3.79,4.58,3.15h-.03,0Z"/>
    <path class="st0" d="M150.88,58.37v1.95c-.67-.67-1.57-1.34-2.52-1.34h-1.37v7.43c.08.95.39,1.46.52,1.63l.06.07h-3.34l.06-.07c.15-.21.53-.86.53-2.1v-6.98h-1.37c-.95,0-1.85.67-2.52,1.34v-1.95l9.95.03h0Z"/>
    <path class="st0" d="M158.85,68.03l.06.07h-3.34l.06-.07c.15-.21.53-.86.53-2.1v-5.43c0-1.52-.58-2.16-.58-2.16h3.34s-.59.64-.59,2.16v5.43c0,1.24.38,1.89.53,2.1h0Z"/>
    <path class="st0" d="M174.66,63.21c0,2.84-1.87,5.14-5.39,5.14s-5.39-2.3-5.39-5.14,1.87-5.14,5.39-5.14,5.39,2.3,5.39,5.14ZM170.79,67.49c1.77-.64,2.41-2.77,1.48-5.35-.99-2.72-2.8-3.79-4.57-3.15s-2.41,2.76-1.46,5.34c.95,2.58,2.81,3.79,4.58,3.15h-.03,0Z"/>
    <path class="st0" d="M189.93,58.34s-.58.64-.58,2.16v7.59h-1.16c-.33,0-.66-.15-.86-.42l-6.51-8.4v6.66c0,1.24.38,1.89.53,2.1l.06.07h-1.78l.06-.07c.15-.21.53-.86.53-2.1v-5.43c0-1.52-.58-2.16-.58-2.16h2.69c.33,0,.65.15.86.42l5.56,7.19v-5.45c0-1.52-.58-2.16-.58-2.16h1.78-.02,0Z"/>
  </g>
</svg>