<?xml version="1.0" encoding="UTF-8"?>
<svg id="Layer_1" xmlns="http://www.w3.org/2000/svg" version="1.1" viewBox="0 0 500 500">
  <!-- Generator: Adobe Illustrator 29.6.1, SVG Export Plug-In . SVG Version: 2.1.1 Build 9)  -->
  <defs>
    <style>
      .st0 {
        fill: #08509f;
      }

      .st1 {
        fill: #f27123;
      }

      .st2 {
        fill: #fff;
      }

      .st3 {
        fill: #51b748;
      }
    </style>
  </defs>
  <path class="st0" d="M132.72,170.42c-21.91,0-40.5,14.29-47.01,34.12-.13.45-.29.91-.42,1.33l-1.1,4.27-27.48,119.45h69.24c20.68,0,38.31-13.16,45.01-31.59l2.61-11.38,26.74-116.22h-67.6v.03Z"/>
  <path class="st1" d="M263.31,130.61c-22.62,0-41.69,15.26-47.59,36.09-.45,1.55-.81,3.14-1.1,4.75l-45.53,197.94h67.6c23.17,0,42.59-15.97,48.01-37.54h.03l46.23-201.24h-67.66Z"/>
  <path class="st3" d="M375.72,170.42c-21.14,0-39.18,13.32-46.27,32.05-.35.97-1.61,4.92-1.61,4.92l-28.13,122.24h67.6c23.23,0,42.72-16.07,48.04-37.74v.03l27.93-121.46h-67.56v-.03Z"/>
  <path class="st2" d="M102.56,214.49c-3.8,3.17-6.25,7.02-6.99,10.09l-14.31,64.8h.81c4.45,0,8.63-1.59,12.44-4.72,3.83-3.14,6.25-6.98,7.18-11.41l3.67-16.46h30.7c4.45,0,8.67-1.58,12.5-4.72,3.83-3.14,6.28-7.02,7.25-11.48l.16-.81h-46.81l2.87-12.97h44.37c4.45,0,8.63-1.58,12.47-4.69,3.8-3.14,6.15-7.05,7.18-11.48l.19-.81h-61.25c-4.45-.06-8.63,1.52-12.44,4.66Z"/>
  <path class="st2" d="M415.11,213.62c-2.45-2.46-5.67-3.72-9.54-3.72h-61.22l-.1.55c-.23,1.2-.35,2.33-.35,3.4,0,3.75,1.26,6.89,3.71,9.38,2.48,2.46,5.67,3.72,9.57,3.72h13.21l-13.27,62.44h.84c4.45,0,8.6-1.59,12.41-4.69,3.8-3.14,6.15-6.98,7.09-11.45l9.83-46.34h31.12l.1-.55c.23-1.13.35-2.33.35-3.49-.03-3.69-1.29-6.79-3.74-9.25Z"/>
  <path class="st2" d="M280.83,209.77h-41.37l.03-.06h-17.01l-16.88,79.68h.81c4.45,0,8.63-1.58,12.4-4.72s6.15-6.98,7.09-11.41l3.45-16.36h41.76c4.45,0,8.6-1.58,12.4-4.69,3.77-3.1,6.19-6.98,7.19-11.51l3.13-14.39c.23-1.13.35-2.3.35-3.49,0-3.69-1.26-6.79-3.77-9.28-2.45-2.49-5.7-3.75-9.57-3.75ZM235.79,226.82h40.98l-2.83,13.03h-40.98l2.83-13.03Z"/>
</svg>