<?xml version="1.0" encoding="UTF-8"?>
<svg id="Layer_1" xmlns="http://www.w3.org/2000/svg" xmlns:xlink="http://www.w3.org/1999/xlink" version="1.1" viewBox="0 0 500 500">
  <!-- Generator: Adobe Illustrator 29.6.1, SVG Export Plug-In . SVG Version: 2.1.1 Build 9)  -->
  <defs>
    <style>
      .st0 {
        fill: url(#linear-gradient);
      }

      .st1 {
        fill: #fff;
      }
    </style>
    <linearGradient id="linear-gradient" x1="162.89" y1="-28.7" x2="339.43" y2="536.88" gradientUnits="userSpaceOnUse">
      <stop offset="0" stop-color="#90bf3e"/>
      <stop offset=".1" stop-color="#90bf3e"/>
      <stop offset=".45" stop-color="#548e36"/>
      <stop offset=".82" stop-color="#195e2f"/>
      <stop offset="1" stop-color="#034c2d"/>
    </linearGradient>
  </defs>
  <rect class="st0" x="-.18" y="0" width="500.2" height="500.2"/>
  <g>
    <path class="st1" d="M142.38,390.6l-6.83.07.16,26.06,6.83-.04-.16-26.09Z"/>
    <path class="st1" d="M180.84,416.13c-1.04-.35-1.89-1.01-2.45-1.85-1.14-1.74-1.24-3.86-1.27-6.63l-.07-11.06-4.22.03-.04-6.2,4.22-.03-.04-6.32,6.82-.04.04,6.32,6.27-.04.04,6.2-6.27.04.07,11.82c0,.73.04,1.29.12,1.59.06.32.13.39.14.39.02.02.05.06.23.1.21.07.64.11,1.21.11.35,0,1.09-.09,1.69-.2.6-.1,1.08-.19,1.08-.19l1.25-.28.71,5.63-.91.33c-.07,0-2.27.77-4.9.78-1.46,0-2.68-.12-3.71-.5"/>
    <path class="st1" d="M204.47,416.68c-1.96.01-3.65-.15-5.14-.55-1.49-.41-2.78-1.13-3.78-2.23-2-2.2-2.69-5.55-2.72-10.52-.02-3.75.35-6.55,1.35-8.7.99-2.13,2.77-3.52,5-4.14,1.49-.44,3.18-.59,5.14-.6,4.25-.03,8.3.95,8.36.96l1.03.24-.82,6.15-1.24-.27s-.18-.03-.5-.11c-.33-.05-.81-.12-1.38-.2-1.16-.15-2.69-.29-4.28-.28s-2.85.12-3.63.35c-.78.26-1.09.52-1.4,1.03-.2.37-.37.86-.49,1.58-.13.96-.2,2.27-.19,3.97.01,1.87.09,3.28.31,4.27.22,1.01.52,1.51.92,1.85.27.24.65.42,1.22.56.78.21,1.88.27,3.34.26,2.37-.01,4.66-.43,5.63-.62.34-.03.5-.09.5-.09l1.25-.28.89,5.95-.92.31c-.09.04-3.26,1.11-8.44,1.14"/>
    <path class="st1" d="M280.05,395.04c-.44-1.97-1.43-3.56-3.05-4.43-1.59-.86-3.58-1.09-6.11-1.08-1.54,0-3.14.19-3.18.19l-.33.03-3.16,2.48h-.02s-.07.04-.11.08c-1.09-1.08-2.12-1.81-3.28-2.23-1.15-.41-2.34-.48-3.78-.47h-.16c-1.42,0-3.11.19-3.11.2l-.24.04-2.71,2.11c-.11.07-.18.13-.26.17-.21.08-.28-.03-.32-.14l-.25-2.04-5.68.03.16,26.09,6.83-.04-.12-19.64c1.04-.18,2.5-.36,3.99-.37,1.02,0,1.78.02,2.32.13.39.1.63.2.79.28.2.18.37.39.54.99.15.6.25,1.53.25,2.83l.09,15.72,6.83-.04-.1-17.52c0-.72-.06-1.46-.23-2.18,1.11-.13,2.62-.28,4.09-.28,1.01-.01,1.8.05,2.32.15.41.09.64.19.8.28.22.18.4.36.56.97.13.58.23,1.54.22,2.85l.09,15.67,6.83-.04-.1-16.13c-.01-1.84-.12-3.41-.44-4.69"/>
    <path class="st1" d="M166.17,391.41c-1.9-.95-4.26-1.23-7.31-1.21-2.51.01-4.67.24-6.51,1-1.84.75-3.31,2.14-4.12,4.18-.79,2.1-1.18,5.13-1.17,8.26.02,2.68.28,4.84.85,6.63.8,2.69,2.35,4.52,4.42,5.48,2.06.97,4.48,1.18,7.23,1.18,5.07-.05,8.83-1.41,8.92-1.45l.91-.33-.97-5.85-1.2.24c-2.55.53-4.61.98-7.24.99-.93,0-1.98,0-2.88-.15-.93-.19-1.65-.51-2.12-1.08-.63-.79-.98-2.36-.98-3.79v-.56c.02-.07.04-.12.11-.15l.02-.03h0c.06.01.09.01.16.03.09.05.17.09.28.16l1.25,1.21.24.18.26.04c.09.02,1.71.32,5,.3,3.47-.05,6.46-.39,7.84-.45l1.08-.05.05-1.06c.09-1.7.12-2.54.12-3.45-.01-2.11-.16-3.9-.56-5.38-.56-2.25-1.79-3.99-3.67-4.91M160.47,400.56c-.92,0-1.55,0-1.55,0h-.1s-.49.02-1.28.02c-.91,0-2.19-.02-3.45-.14.05-.78.09-1.39.17-1.9.09-.53.21-.88.35-1.1.21-.32.37-.49,1.08-.7.68-.21,1.81-.31,3.43-.32,1.05,0,1.86.03,2.43.16.42.09.7.19.89.32.25.2.48.49.67,1.23.15.54.24,1.31.28,2.32-1.02.08-2.09.1-2.93.11"/>
    <path class="st1" d="M238.65,393.38c-.82-1.47-2.15-2.45-3.84-2.94-1.66-.51-3.68-.67-6.21-.65-2.26.01-4.09.16-5.63.55-1.16.32-2.17.77-2.99,1.47-1.25,1.05-1.99,2.56-2.38,4.43-.4,1.85-.51,4.13-.49,6.98.02,2.53.13,4.61.44,6.36.24,1.29.6,2.41,1.16,3.33.84,1.47,2.17,2.46,3.83,2.96,1.67.52,3.67.66,6.21.66,2.25-.03,4.09-.16,5.65-.55,1.16-.32,2.17-.79,2.98-1.52,1.25-1.02,1.98-2.54,2.38-4.39.39-1.87.47-4.13.45-6.99-.02-2.56-.11-4.62-.41-6.36-.24-1.3-.59-2.4-1.16-3.35M233.18,407.44c-.09.78-.24,1.31-.39,1.67-.25.53-.41.67-.99.89-.6.2-1.63.29-3.08.3-1.3,0-2.24-.05-2.85-.2-.46-.1-.7-.25-.89-.42-.26-.25-.54-.75-.7-1.82-.17-1.06-.23-2.6-.24-4.67-.01-1.84.02-3.28.13-4.31.11-.78.23-1.34.39-1.66.26-.53.42-.68,1.01-.89.61-.21,1.61-.3,3.06-.31,1.29,0,2.24.04,2.86.19.48.13.71.25.9.43.26.25.52.74.68,1.81.17,1.06.23,2.6.23,4.68.02,1.84-.02,3.28-.12,4.31"/>
    <path class="st1" d="M359.15,394.57c-.45-1.97-1.46-3.56-3.07-4.42-1.6-.86-3.58-1.09-6.12-1.08-.95,0-2.76.23-2.79.23l-.32.03h-.02s-2.7,2.1-2.7,2.1c-.11.07-.18.13-.27.19-.18.07-.28-.05-.31-.12l-.25-2.1-5.76.03.16,26.09,6.84-.04-.12-19.58c1.17-.21,2.83-.42,4.41-.43,1,0,1.79.02,2.33.13.4.1.64.2.8.28.23.18.38.39.54.99.17.6.23,1.53.24,2.83l.09,15.72,6.85-.04-.1-16.13c-.01-1.84-.13-3.41-.43-4.69"/>
    <path class="st1" d="M387.37,413.83s-.09-.08-.14-.12c-.03-.03-.05-.06-.09-.08-7.76-6.76-9.85-12.44-9.85-12.44l4.5-5.17,4.35-5.05,2.22-2.52-1.66.06-6.38.04-8.68,9.73c-.16.19-.35.38-.51.5-.29.17-.61.12-.61.12l-.12-19.91-6.85.04.22,36.34,6.85-.04-.07-11.53s.52-.06.7.19c0,0,3.74,7.28,8.95,11.24l6.23-.04v.04s2.6-.02,2.6-.02c-.58-.46-1.15-.96-1.65-1.39"/>
    <path class="st1" d="M332.67,393.45c-.52-1.19-1.35-2.13-2.44-2.77-1.94-1.16-4.53-1.47-7.83-1.45-5.85.03-10.02,1.37-10.1,1.39l-.96.29,1.03,6.1,1.27-.32s.24-.05.67-.17c1.33-.31,4.4-.94,7.46-.96,1.82-.03,3.05.11,3.66.42.47.22.68.44.86.78.17.34.26.86.29,1.59l-7.66.11c-1.5.04-2.8.17-3.91.5-1.66.44-3.01,1.42-3.74,2.85-.74,1.44-.96,3.16-.96,5.38,0,1.59.14,2.9.48,4.07.48,1.74,1.6,3.09,3.23,3.81,1.61.7,3.6.9,6.19.9,1.59,0,3.55-.24,3.55-.24l.37-.05,2.72-2.1c.12-.09.2-.15.27-.21.18-.05.27.06.31.13l.23,2.06,5.88-.04-.11-17.75c-.01-1.71-.24-3.14-.76-4.35M326.64,408.93c-1.3.25-3.87.72-6.03.73-.79,0-1.44-.02-1.91-.09-.36-.02-.62-.11-.78-.17-.23-.14-.28-.2-.43-.46-.13-.29-.25-.87-.26-1.79,0-.98.11-1.62.24-1.96.1-.28.17-.35.25-.41.12-.09.37-.17.93-.25.54-.03,1.31,0,2.25-.03l5.72-.17.03,4.61Z"/>
    <path class="st1" d="M301.84,390.1c-1.35-.5-2.92-.73-4.81-.72-.72,0-1.42.11-1.93.2-.2.06-.37.08-.5.11l-2.65,2.13c-.11.07-.2.12-.27.16-.18.09-.28-.01-.28-.1l-.07-12.42-6.82.04.22,34.94.8.26c3.35,1.12,6.99,1.44,9.67,1.44,2.32-.01,4.22-.24,5.83-.73,2.41-.72,4.14-2.29,5-4.46.91-2.15,1.12-4.87,1.1-8.38-.03-4.4-.43-7.62-2-9.96-.79-1.16-1.91-2-3.28-2.51M300.02,406.66c-.11.74-.25,1.3-.44,1.68-.29.6-.53.82-1.07,1.05-.52.21-1.41.34-2.63.35-1.45,0-2.76-.13-3.7-.26-.23-.02-.43-.06-.6-.12l-.08-13.01c1.02-.26,2.81-.61,4.45-.62,1.03,0,1.82.09,2.34.29.38.12.64.29.86.51.31.34.59.94.79,1.94.17,1,.27,2.4.28,4.15s-.05,3.05-.19,4.06"/>
    <path class="st1" d="M110.44,416.31l.07.1.11.05s2.27.54,5.35.52c1.54,0,3.29-.15,5.09-.58l.11-.03.06-.11c7.69-11.89,10.33-23.22,11.26-29.77.44-2.67.55-5.73.55-5.77l-8.1,1.24c-.58,4.39-2.67,17.04-8.68,27.4l-.25.43-.25-.43c-4.18-7.06-6.5-14.18-7.8-19.54-.62-2.58-1.18-6.12-1.42-7.8l-8.24-1.06c.03,1.46.7,18.04,12.14,35.36"/>
    <g>
      <path class="st1" d="M399.14,132.89c-.19-19.97-8.53-35.54-21.71-43.33-1.26-.66-2.53-1.41-3.88-2.02,1.07.51,10.19,5.25,14.68,16.54h0c2.13,5.18,3.77,13.66.71,26.04,0,0-.74,2.87-1.24,4.51-.04,0-.04.05-.04.07,0,0-.02,0-.02,0l-.02.16c-.17.48-.27,1-.49,1.53v.07c-.06.14-.1.25-.13.39-6.11,18.97-17.03,42.43-31.56,66.65-14.09,23.41-29.2,43.44-42.74,57.66-.07.06-.09.08-.11.12-6.1,6.02-10.64,8.05-13.39,8.72-3.41.66-5.48-.1-5.48-.1-3.27-.65-7.37-3.46-11.17-6.66-17.24-13.49-39.08-37.61-59.88-67.31-33.48-47.9-52.16-92.85-45.16-106.84,0,0,4.6-11.98,26.16-15.86l.08-.03c-60.36,8.07-86.66,26.38-96.97,36.67l-.32.31c-8.12,8.29-12.93,19.79-10.52,36.81,0,0,.13,1.1.57,3.15.2,1.11.42,2.23.71,3.37,3.31,16.31,10.79,37.02,21.7,58.5,2.75,5.41,5.62,10.62,8.52,15.65,7.65,13.78,16.48,27.73,26.49,41.36,22.66,31.18,48.16,57.11,73.53,76.23,1.97,1.62,4.11,3.28,6.29,4.91,4.96,3.58,9.78,6.73,14.29,9.28,3.66,2.29,7.65,4.01,11.93,5.14,1.06.3,2.1.52,3.16.68,2.87.54,5.74.77,8.73.68,12.66-.3,23.92-5.98,31.56-14.85.41-.46,1.2-1.28,2.18-2.53,3.64-4.26,8.93-10.87,15.28-20.31,16.68-23.7,32.51-51.99,46.07-83.38,15.27-35.23,25.7-69.86,31.3-100.95.64-3.55.93-7.22.89-11.03"/>
      <path class="st1" d="M380.22,99.86c-5.13-9.08-17.02-15.42-20.17-16.79-20.34-8.72-44.87-10.04-64.02-11.52-11.96-1.11-24.35-1.7-37.03-1.7s-26.95.27-38.36,1.62c-.99.12-25.51,3.93-33.96,17.09-4.45,6.85-1.01,18.48,1.28,25.46,8.19,24.81,25.25,51.03,25.61,51.02,7.87-1.26,17.42-1.89,26.71-2.46,7.68-.41,16.38-.74,26.16-.97,30.63-.31,57.58,2.38,76.07,7.15,3.44.83,6.79,1.81,9.41,3.09,3.38,1.82,5.99,4.23,7.35,7.22,0,.27,33.84-56.57,20.96-79.22"/>
    </g>
  </g>
</svg>