<?xml version="1.0" encoding="UTF-8"?>
<svg id="Layer_1" xmlns="http://www.w3.org/2000/svg" version="1.1" viewBox="0 0 500 500">
  <!-- Generator: Adobe Illustrator 29.6.1, SVG Export Plug-In . SVG Version: 2.1.1 Build 9)  -->
  <defs>
    <style>
      .st0 {
        fill: #fff;
      }

      .st1 {
        fill: #0213b0;
      }
    </style>
  </defs>
  <rect class="st1" x="-.5" y="-.11" width="500" height="500"/>
  <g>
    <path class="st0" d="M72.13,308.55h9.37c.23,0,.38-.15.38-.38v-4.54c0-.23-.15-.38-.38-.38h-4.29c-.23,0-.38-.15-.38-.38v-5.11c0-.23.15-.38.38-.38h3.95c.23,0,.38-.15.38-.38v-4.5c0-.23-.15-.38-.38-.38h-3.95c-.23,0-.38-.15-.38-.38v-3.67c0-.49.26-.75,1.05-.75.94,0,2.3.19,3.35.83.42.23.64.15.64-.26v-5.45c0-.23-.15-.38-.38-.38h-10.13c-.34,0-.53.23-.45.57.34,1.59.45,2.49.45,5.75v19.4c0,.49.26.75.75.75,0,0,0,0,0,0ZM87.87,308.92c4.21,0,6.66-3.33,6.66-7.83,0-3.33-1.39-5.33-3.01-7.22l-.45-.53c-1.36-1.55-2.22-2.65-2.22-4.08,0-.91.45-1.85,1.51-1.85.94,0,1.51.49,2.26,1.59.53.8.64.95.94.95.34,0,.45-.27.45-.68v-4.5c0-.68-.11-1.29-.6-1.85-.68-.72-1.92-1.21-3.54-1.21-4.21,0-6.59,3.37-6.59,7.91,0,3.37,1.58,5.56,3.12,7.34l.23.26c1.24,1.44,2.3,2.61,2.3,4.05,0,.87-.42,1.97-1.58,1.97s-1.88-.87-2.67-2.15c-.45-.8-.53-1.02-.87-1.02-.38,0-.49.38-.49.75v5.07c0,.68.11,1.29.6,1.81.68.75,1.98,1.25,3.95,1.25,0,0,0,0,0,0ZM99.82,308.55h3.95c.49,0,.76-.26.76-.75v-19.93c0-.26.04-.49.49-.49.75,0,1.36.41,2.52.98.42.19.64,0,.64-.41v-5.48c0-.23-.15-.38-.38-.38h-12.01c-.23,0-.38.15-.38.38v5.48c0,.42.23.6.64.41,1.17-.57,1.77-.98,2.52-.98.45,0,.49.23.49.49v19.93c0,.49.26.75.75.75h0ZM389.24,308.55c.49,0,.75-.26.75-.75v-24.96c0-.49-.26-.75-.75-.75h-3.2c-.45,0-.6.19-.91.83-.83,1.78-1.7,3.25-2.93,4.69-.45.53-.53.83-.53,1.59v5.33c0,.42.15.64.37.64.38,0,.64-.49,1.69-2.08l.79-1.17c.15-.23.23-.26.3-.26.15,0,.15.19.15.45v15.69c0,.49.26.75.75.75h3.5ZM398.04,281.69c-4.48,0-6.51,3.48-6.51,9.19,0,5.18,1.69,8.47,4.93,8.47,1.2,0,2.14-.53,2.75-1.25.23-.26.45-.3.45.3,0,3.4-1.09,5.37-2.9,5.37-1.17,0-1.73-.75-2.56-2.04-.31-.45-.53-.72-.83-.72-.34,0-.49.34-.49.83v4.2c0,.87.19,1.48.83,1.97s1.85.91,3.42.91c5.31,0,7.83-4.8,7.83-14.78,0-8.47-2.14-12.44-6.93-12.44h0s0-.01,0-.01ZM396.88,290.62c0-3.89.53-4.77,1.24-4.77.75,0,1.28.91,1.28,4.77s-.53,4.77-1.28,4.77-1.24-.87-1.24-4.77ZM407.58,308.55h3.84c.68,0,.86-.19.86-.87-.04-6.96,1.73-13.39,4.93-19.97.34-.68.45-1.17.45-1.89v-2.98c0-.49-.26-.75-.75-.75h-10.61c-.49,0-.75.26-.75.75v4.01c0,.49.26.75.75.75h5c.79,0,.68.38.38.95-3.27,6.2-4.86,12.33-5.04,19.06-.04.75.23.94.94.94ZM424.7,308.92c4.48,0,6.51-3.48,6.51-9.19,0-5.18-1.7-8.47-4.93-8.47-1.2,0-2.14.53-2.75,1.25-.23.26-.45.3-.45-.3,0-3.4,1.09-5.37,2.9-5.37,1.17,0,1.73.75,2.56,2.04.3.45.53.72.83.72.34,0,.49-.34.49-.83v-4.2c0-.87-.19-1.48-.83-1.97s-1.84-.91-3.42-.91c-5.31,0-7.83,4.8-7.83,14.78,0,8.47,2.15,12.44,6.93,12.44h0s0,0,0,0ZM423.34,300c0-3.86.53-4.77,1.28-4.77s1.25.87,1.25,4.77-.53,4.77-1.25,4.77-1.28-.91-1.28-4.77ZM144.44,212.27c-2,.85-4.31,1.32-6.84,1.32s-4.84-.46-6.85-1.31c-1.7-.72-3.05.13-3.05,1.98v55.44c0,1.21.98,2.19,2.18,2.19h15.41c1.21,0,2.18-.98,2.18-2.19v-55.45c0-1.85-1.36-2.7-3.05-1.98h0ZM137.51,191.06c-6.48,0-10.77,3.52-10.59,9.32.17,5.54,4.2,9.32,10.68,9.32s10.59-3.78,10.59-9.32-4.2-9.32-10.68-9.32ZM348.63,212.27c-2,.85-4.31,1.32-6.84,1.32s-4.84-.46-6.85-1.31c-1.7-.72-3.05.13-3.05,1.98v55.44c0,1.21.98,2.19,2.18,2.19h15.41c1.21,0,2.18-.98,2.18-2.19v-55.45c0-1.85-1.36-2.7-3.05-1.98,0,0,0,0,0,0ZM341.7,191.06c-6.48,0-10.77,3.52-10.59,9.32.17,5.54,4.2,9.32,10.68,9.32s10.59-3.78,10.59-9.32-4.2-9.32-10.68-9.32ZM374.34,192.24h-17.12c-1.51,0-2.46,1.32-2.13,2.69,1.13,4.66,1.65,10.29,1.65,17.89v56.87c0,1.21.98,2.19,2.18,2.19h15.41c1.21,0,2.18-.98,2.18-2.19v-75.26c0-1.21-.98-2.19-2.18-2.19h0ZM123.51,192.24h-21.27c-1.39,0-2.32,1.2-1.88,2.57,1.44,4.44,1.32,8.41,1.03,12.12l-3.33,43.68c-.1,1.27-1.65,1.27-1.74,0l-3.29-43.68c-.29-3.71-.42-7.67,1.03-12.12.45-1.37-.48-2.57-1.88-2.57h-21.85c-1.63,0-2.65,1.51-2,3.06,1.94,4.65,2.88,9.21,3.43,13.03l9.05,60.75c.24,1.61,1.62,2.8,3.24,2.8h25.7c1.62,0,3-1.19,3.24-2.8l9.09-60.75c.56-3.82,1.5-8.39,3.43-13.03.65-1.55-.38-3.06-2-3.06ZM431.08,269.2l-17.06-32.14c-.4-.76-.61-1.48-.61-2.11,0-1.85,1.29-3.46,4.7-3.46,1.78,0,3.11.18,4.89.56,1.13.24,2.2-.43,2.2-1.79v-16.93c0-2.02-1.97-2.4-4.23-2.4-12.33,0-15.98,8.87-16.76,18.16-.24,2.81-.93,4.01-2.16,4.01-.4,0-.66-.25-.66-.83v-37.84c0-1.21-.98-2.19-2.19-2.19h-17.12c-1.51,0-2.46,1.32-2.13,2.69,1.13,4.66,1.65,10.29,1.65,17.89v56.87c0,1.21.98,2.19,2.18,2.19h15.41c1.21,0,2.19-.98,2.19-2.19v-18.96c0-.66.69-.87.91-.24l7.2,19.42c.4,1.19,1.51,1.98,2.76,1.98h17.22c1.47,0,2.26-1.47,1.61-2.69h0s0,0,0,0ZM185.62,210.93c-5.28,0-9.73,1.35-13.37,5.06-.34.35-.94.1-.94-.39v-1.34c0-1.21-.98-2.19-2.18-2.19h-16.11c-1.51,0-2.46,1.33-2.12,2.71,1.13,4.66,1.65,10.28,1.65,17.88v37.04c0,1.21.98,2.19,2.18,2.19h15.41c1.21,0,2.18-.98,2.18-2.19v-39.32c0-2.79,1.49-4.4,3.85-4.4,2.19,0,3.59,1.6,3.59,4.4v39.32c0,1.21.98,2.19,2.18,2.19h15.41c1.21,0,2.18-.98,2.18-2.19v-43.81c0-9.62-5.55-14.96-13.95-14.96,0,0,.01,0,.01,0ZM313.39,210.93c-5.5,0-10.26,2.18-13.34,5.38-.36.38-.85.35-1.14-.11-2.14-3.42-5.9-5.27-11.14-5.27s-9.57,2.11-12.72,5.15c-.34.34-.92.09-.92-.4v-1.41c0-1.21-.98-2.19-2.18-2.19h-16.11c-1.51,0-2.46,1.33-2.12,2.71,1.13,4.66,1.65,10.28,1.65,17.88v37.04c0,1.21.98,2.19,2.18,2.19h15.41c1.21,0,2.18-.98,2.18-2.19v-39.33c0-2.59.91-4.38,3.27-4.38,2.19,0,2.86,1.8,2.86,4.4v39.32c0,1.21.98,2.19,2.18,2.19h15.41c1.21,0,2.18-.98,2.18-2.19v-39.44c.03-2.53.94-4.28,3.27-4.28,2.19,0,2.86,1.8,2.86,4.4v39.32c0,1.21.98,2.19,2.18,2.19h15.41c1.21,0,2.18-.98,2.18-2.19v-43.81c0-9.26-4.73-14.95-13.58-14.95,0,0,0-.02,0-.02ZM229.32,210.93c-6.97,0-15.08,1.5-21.56,6.87-.67.56-1.07,1.39-1.07,2.27v13.44c0,1.61,1.82,2.49,3.07,1.41,6.47-5.6,12.83-8.87,17.41-8.87,2.45,0,3.94.67,3.94,2.59,0,3.05-4.29,4.27-12.22,7.87-7.58,3.44-15.89,8.51-15.89,20.06,0,10.47,6.49,16.3,14.97,16.3,6.76,0,10.36-2.38,13.01-5.43.33-.38.96-.14.96.36v1.88c0,1.21.98,2.19,2.18,2.19h14.14c1.21,0,2.18-.98,2.18-2.19v-38.6c0-13.83-6.77-20.16-21.14-20.16ZM231.57,251.78c0,4.22-2.1,6.53-4.97,6.53-2.1,0-4.01-1.44-4.01-4.32,0-4.63,4.6-7.23,8.26-10.4.28-.24.72-.04.72.34v7.85ZM420.03,202.98c-3.18,0-5.57-2.27-5.57-5.57s2.33-5.57,5.57-5.57,5.57,2.39,5.57,5.57-2.33,5.57-5.57,5.57ZM420.03,192.87c-2.66,0-4.41,1.89-4.41,4.54s1.75,4.54,4.41,4.54,4.41-1.89,4.41-4.54-1.75-4.54-4.41-4.54Z"/>
    <path class="st0" d="M421.61,198.37s0-.06.03-.08c.73-.35,1.13-1.05,1.13-1.93,0-.52-.18-2.2-2.41-2.2h-2.44c-.13,0-.17.08-.13.18.12.3.18.49.18,1.16v4.71c0,.08.07.15.15.15h1.19c.08,0,.15-.07.15-.15v-1.61s.03-.06.05-.06h.52s.05.02.07.04l.8,1.67c.03.06.09.1.16.1h1.49c.12,0,.17-.1.12-.21l-1.04-1.8s0,.01,0,.01ZM420.21,197.44h-.7s-.05-.03-.05-.06v-1.92s.03-.06.05-.06h.7c.9,0,1.04.63,1.04,1,0,.31-.1,1.04-1.04,1.04h0Z"/>
  </g>
</svg>